<svg xmlns="http://www.w3.org/2000/svg" data-name="Layer 1" viewBox="0 0 92.27 120" x="0px" y="0px"><title>01</title><path d="M89,32.59c-1.44,0-3.37,1.28-5.62.64-2-.58-4.3-1.68-7.78-1.07a4.7,4.7,0,0,1-2.85-.42c-.73-.35-2.88-.84-3.65-1.45,0,0-3.21,1.5-4.07,4.28s-.86,6.42-1.5,14.55-6,16.37-11.13,21.29-22.68,12.94-30.6,13.8c-6.94.75-15,2.65-17.5,8.15a5,5,0,0,0,.73,5.37l0,0a.77.77,0,0,0,1.24-.25c1.54-2.55,3.14-3.89,5.55-4.07,7.91-.58,17.86,6.69,41.18.27S86.12,67.84,89.76,54.58s3.74-17,2-20C91.79,34.57,90.45,32.59,89,32.59Z" transform="translate(-3.87 -2)"/><path d="M95.91,4.83c-1.12-1.77-3-3.71-7.7-2.41S81.31,15.9,79.38,19s-4.81,3.53-5.94,4.33-3.21,4.33-3.21,4.33a12.53,12.53,0,0,0,5.3,1.77,29,29,0,0,1,8.5.91c4.17,1,5-.47,5-.47s-.82-2.85-1.47-4.29S84,22,84.19,19.43s3.37-14,6.58-13.8c0,0,1.29,0,2.09,2.09S97,6.6,95.91,4.83Z" transform="translate(-3.87 -2)"/></svg>